<?xml version="1.0" encoding="UTF-8" standalone="no"?>
<!-- Created with Inkscape (http://www.inkscape.org/) -->

<svg
   width="512"
   height="512"
   viewBox="0 0 512 512"
   version="1.1"
   id="svg1"
   xml:space="preserve"
   xmlns="http://www.w3.org/2000/svg"
   xmlns:svg="http://www.w3.org/2000/svg"><defs
     id="defs1" /><g
     id="layer1"><g
       id="g7"
       transform="translate(7.6885085,31.894412)"
       style="stroke:#1d9e75;stroke-opacity:1"><path
         style="opacity:1;fill:none;stroke:#1d9e75;stroke-width:50.2583;stroke-dasharray:none;stroke-opacity:1"
         id="path4"
         d="M 310.55621,-360.55923 A 205.70602,139.83839 0 0 1 206.96716,-239.16812 205.70602,139.83839 0 0 1 0.53035227,-240.03683 205.70602,139.83839 0 0 1 -100.84007,-362.29044"
         transform="matrix(0.80070674,-0.59905653,-0.47854512,-0.87806297,0,0)" /><path
         style="opacity:1;fill:none;stroke:#1d9e75;stroke-width:68.6693;stroke-dasharray:none;stroke-opacity:1"
         id="path5"
         d="m 231.15392,-389.26459 a 126.68266,86.031998 0 0 1 -63.79462,74.68278 126.68266,86.031998 0 0 1 -127.132706,-0.53445 126.68266,86.031998 0 0 1 -62.428289,-75.21341"
         transform="matrix(0.80140665,-0.59811987,-0.47944516,-0.87757184,0,0)" /><path
         style="opacity:1;fill:none;stroke:#1d9e75;stroke-width:51.1176;stroke-dasharray:none;stroke-opacity:1"
         id="path6"
         d="m 199.6453,-457.56168 a 78.490433,54.024029 0 0 1 -39.52606,46.89726 78.490433,54.024029 0 0 1 -78.769278,-0.33561 78.490433,54.024029 0 0 1 -38.679511,-47.23047"
         transform="matrix(0.79189533,-0.61065684,-0.46744056,-0.8840245,0,0)" /></g></g></svg>
